<svg width="84" height="55" viewBox="0 0 84 55" fill="none" xmlns="http://www.w3.org/2000/svg">
<path d="M36.4124 42.7039H12.1482L7.67633 54.9919H0L20.1233 0.059082H28.5075L48.5606 54.9999H40.8843L36.4124 42.7039ZM24.2763 8.93719L14.2136 36.8396H34.3369L24.2763 8.93719Z" fill="#111820"/>
<path d="M56.3787 30.8144L73.2233 11.5532H83.3641L62.7656 33.1931L83.4484 54.9923H73.5461L56.3787 35.8088V30.8144Z" fill="#005CB2"/>
<path d="M50.0087 0.000328055C49.2721 -0.00766316 48.5414 0.130415 47.8594 0.406465C47.1773 0.682514 46.5576 1.09098 46.0367 1.6079C45.5158 2.12482 45.1041 2.73979 44.8258 3.41675C44.5474 4.09371 44.4081 4.81902 44.4159 5.55014C44.4078 6.28144 44.547 7.00696 44.8252 7.68415C45.1034 8.36134 45.515 8.97655 46.036 9.49368C46.5569 10.0108 47.1767 10.4195 47.8589 10.6956C48.5411 10.9718 49.272 11.1099 50.0087 11.102C53.0447 11.102 55.423 8.66346 55.423 5.55014C55.423 2.43683 53.0447 0.000328055 50.0087 0.000328055Z" fill="#005CB2"/>
</svg>
