<svg width="235" height="55" viewBox="0 0 235 55" fill="none" xmlns="http://www.w3.org/2000/svg">
<path d="M59.346 14.0598C67.8167 14.0598 73.3591 18.4945 75.1018 25.785H68.999C67.8166 21.6089 64.3911 18.9426 59.346 18.9426C53.1185 18.9426 48.5106 23.44 48.5106 31.9319C48.5106 40.5492 53.1185 45.0481 59.346 45.0481C64.3974 45.0481 67.7535 42.5778 68.999 38.2057H75.1018C73.3654 45.1124 67.8167 49.9309 59.346 49.9309C49.6314 49.9309 42.7188 42.9601 42.7188 31.9416C42.7188 21.0307 49.6314 14.0598 59.346 14.0598Z" fill="#F4F5F0"/>
<path d="M93.886 49.9261C84.1698 49.9261 77.0078 42.9553 77.0078 31.9368C77.0078 20.9665 83.922 14.0598 93.886 14.0598C103.784 14.0598 110.265 21.1576 110.265 30.663C110.267 31.8275 110.204 32.9911 110.078 34.1485H82.7996C83.2369 41.182 88.0942 45.0465 93.886 45.0465C98.9927 45.0465 102.23 42.3867 103.476 38.6474H109.579C107.836 44.9839 102.363 49.9261 93.886 49.9261ZM82.8628 29.4584H104.415C104.478 22.6787 99.4963 18.941 93.6413 18.941C88.0942 18.941 83.4847 22.6787 82.8628 29.4584Z" fill="#F4F5F0"/>
<path d="M137.301 29.7157C137.301 22.6196 133.503 19.0072 127.773 19.0072C121.981 19.0072 117.995 22.6822 117.995 30.159V49.3595H112.328V14.6352H117.995V19.5774C120.237 15.9651 124.347 14.0007 128.957 14.0007C136.866 14.0007 142.907 18.9446 142.907 28.8918V49.3595H137.301V29.7157Z" fill="#F4F5F0"/>
<path d="M149.061 19.3845H144.641V14.6318H149.061V5.8877H154.728V14.6318H163.634V19.3845H154.728V39.8507C154.728 43.2735 155.973 44.4765 159.464 44.4765H163.636V49.3561H158.527C152.486 49.3561 149.056 46.8216 149.056 39.8507L149.061 19.3845Z" fill="#F4F5F0"/>
<path d="M172.914 49.3575H167.242V14.6332H172.909V20.2725C174.845 16.4064 178.52 14.5432 183.937 14.5432V19.9561H182.442C177.025 19.9561 172.914 22.4264 172.914 30.4751V49.3575Z" fill="#F4F5F0"/>
<path d="M187.442 24.0447H193.105V49.3615H187.438L187.442 24.0447Z" fill="#F4F5F0"/>
<path fill-rule="evenodd" clip-rule="evenodd" d="M186.97 23.5425H193.637V49.8593H186.965L186.97 23.5425ZM187.974 24.5425L187.97 48.8593H192.632V24.5425H187.974Z" fill="#F4F5F0"/>
<path d="M202.262 29.8617H207.929V30.0224L221.071 14.6238H228.979L212.917 31.9289L229.047 49.3545H221.325L207.935 34.0202V49.3545H202.262V29.8617Z" fill="#F4F5F0"/>
<path d="M194.485 18.3973C194.477 17.8791 194.571 17.3645 194.762 16.8841C194.953 16.4037 195.238 15.9673 195.598 15.6008C195.958 15.2344 196.387 14.9453 196.859 14.7508C197.331 14.5563 197.837 14.4603 198.346 14.4685C200.398 14.4685 202.083 16.1791 202.083 18.3973C202.083 20.6154 200.401 22.326 198.346 22.326C197.837 22.3343 197.331 22.2383 196.859 22.0437C196.387 21.8492 195.958 21.5601 195.598 21.1937C195.238 20.8272 194.953 20.3908 194.762 19.9104C194.571 19.43 194.477 18.9155 194.485 18.3973V18.3973Z" fill="#F4F5F0"/>
<path fill-rule="evenodd" clip-rule="evenodd" d="M198.368 14.9689C197.927 14.9618 197.49 15.0448 197.081 15.2132C196.672 15.3817 196.3 15.6324 195.986 15.951C195.673 16.2696 195.426 16.6496 195.259 17.0687C195.092 17.4879 195.01 17.9372 195.017 18.39L194.514 18.3977L195.017 18.4055C195.01 18.8583 195.092 19.3076 195.259 19.7268C195.426 20.1459 195.673 20.5259 195.986 20.8445C196.3 21.1631 196.672 21.4138 197.081 21.5822C197.49 21.7507 197.927 21.8337 198.368 21.8266L198.376 21.8264V21.8265C200.133 21.8265 201.61 20.361 201.61 18.3977C201.61 16.4347 200.13 14.969 198.376 14.969H198.368L198.368 14.9689ZM194.012 18.3977C194.004 17.8167 194.11 17.2396 194.325 16.7004C194.54 16.1588 194.861 15.666 195.268 15.2517C195.676 14.8373 196.161 14.5098 196.696 14.2893C197.231 14.0692 197.803 13.9602 198.38 13.969C200.728 13.9713 202.615 15.9259 202.615 18.3977C202.615 20.8693 200.732 22.8242 198.38 22.8265C197.803 22.8353 197.231 22.7263 196.696 22.5062C196.161 22.2857 195.676 21.9582 195.268 21.5438C194.861 21.1295 194.54 20.6367 194.325 20.0951C194.11 19.5558 194.004 18.9788 194.012 18.3977Z" fill="#F4F5F0"/>
<path d="M33.6794 39.5557H14.5265L10.9984 49.4933H4.94922L20.8266 5.06592H27.4425L43.2567 49.4933H37.2092L33.6794 39.5557ZM24.1038 12.2504L16.1572 34.8126H32.0425L24.1038 12.2504Z" fill="#F4F5F0"/>
</svg>
