<svg width="233" height="55" viewBox="0 0 233 55" fill="none" xmlns="http://www.w3.org/2000/svg">
<path d="M59.1249 14.0615C67.5569 14.0615 73.0739 18.4962 74.8087 25.7867H68.7338C67.5569 21.6106 64.147 18.9444 59.1249 18.9444C52.9259 18.9444 48.3391 23.4417 48.3391 31.9336C48.3391 40.5509 52.9259 45.0498 59.1249 45.0498C64.1533 45.0498 67.494 42.5795 68.7338 38.2074H74.8087C73.0802 45.1141 67.5569 49.9326 59.1249 49.9326C49.4547 49.9326 42.5737 42.9618 42.5737 31.9433C42.5737 21.0324 49.4547 14.0615 59.1249 14.0615Z" fill="white"/>
<path d="M93.4714 49.9278C83.7997 49.9278 76.6704 42.9569 76.6704 31.9385C76.6704 20.9682 83.553 14.0615 93.4714 14.0615C103.324 14.0615 109.776 21.1593 109.776 30.6647C109.777 31.8292 109.715 32.9928 109.589 34.1502H82.4357C82.871 41.1837 87.7061 45.0482 93.4714 45.0482C98.5548 45.0482 101.778 42.3884 103.017 38.6491H109.092C107.358 44.9856 101.91 49.9278 93.4714 49.9278ZM82.4986 29.4601H103.952C104.015 22.6804 99.0561 18.9427 93.2279 18.9427C87.7061 18.9427 83.1177 22.6804 82.4986 29.4601Z" fill="white"/>
<path d="M136.712 29.7165C136.712 22.6203 132.931 19.008 127.227 19.008C121.462 19.008 117.494 22.6829 117.494 30.1598V49.3602H111.853V14.6359H117.494V19.5782C119.726 15.9658 123.817 14.0015 128.406 14.0015C136.278 14.0015 142.292 18.9453 142.292 28.8925V49.3602H136.712V29.7165Z" fill="white"/>
<path d="M148.391 19.386H143.991V14.6333H148.391V5.88916H154.032V14.6333H162.898V19.386H154.032V39.8521C154.032 43.2749 155.272 44.478 158.746 44.478H162.899V49.3576H157.814C151.801 49.3576 148.386 46.823 148.386 39.8521L148.391 19.386Z" fill="white"/>
<path d="M172.139 49.3592H166.493V14.6349H172.134V20.2742C174.061 16.4081 177.719 14.5449 183.112 14.5449V19.9578H181.624C176.231 19.9578 172.139 22.4281 172.139 30.4768V49.3592Z" fill="white"/>
<path d="M186.628 24.0444H192.264V49.3613H186.623L186.628 24.0444Z" fill="#3E99D8"/>
<path d="M201.38 29.863H207.021V30.0236L220.103 14.625H227.975L211.987 31.9301L228.043 49.3557H220.356L207.027 34.0214V49.3557H201.38V29.863Z" fill="white"/>
<path d="M193.639 18.3985C193.631 17.8803 193.725 17.3657 193.915 16.8853C194.105 16.4049 194.388 15.9685 194.746 15.6021C195.105 15.2356 195.532 14.9465 196.002 14.752C196.472 14.5575 196.975 14.4615 197.482 14.4697C199.525 14.4697 201.202 16.1803 201.202 18.3985C201.202 20.6166 199.528 22.3272 197.482 22.3272C196.975 22.3355 196.472 22.2395 196.002 22.045C195.532 21.8504 195.105 21.5614 194.746 21.1949C194.388 20.8284 194.105 20.392 193.915 19.9116C193.725 19.4313 193.631 18.9167 193.639 18.3985V18.3985Z" fill="#3E99D8"/>
<path d="M33.5564 39.5572H14.491L10.979 49.4947H4.95752L20.7623 5.06738H27.3479L43.0899 49.4947H37.07L33.5564 39.5572ZM24.0245 12.2519L16.1142 34.8141H31.9269L24.0245 12.2519Z" fill="white"/>
</svg>
