<svg width="234" height="54" viewBox="0 0 234 54" fill="none" xmlns="http://www.w3.org/2000/svg">
<path d="M59.3781 13.8057C67.8462 13.8057 73.387 18.1597 75.1292 25.3177H69.0282C67.8462 21.2175 64.4217 18.5997 59.3781 18.5997C53.1524 18.5997 48.5459 23.0153 48.5459 31.3528C48.5459 39.8134 53.1524 44.2305 59.3781 44.2305C64.428 44.2305 67.7831 41.8051 69.0282 37.5126H75.1292C73.3933 44.2936 67.8462 49.0246 59.3781 49.0246C49.6664 49.0246 42.7559 42.1805 42.7559 31.3623C42.7559 20.6498 49.6664 13.8057 59.3781 13.8057Z" fill="#111820"/>
<path d="M93.8722 49.0199C84.1589 49.0199 76.999 42.1757 76.999 31.3576C76.999 20.5867 83.9111 13.8057 93.8722 13.8057C103.767 13.8057 110.247 20.7744 110.247 30.107C110.248 31.2503 110.185 32.3928 110.059 33.5291H82.7891C83.2262 40.4347 88.0821 44.229 93.8722 44.229C98.9773 44.229 102.214 41.6175 103.459 37.9462H109.56C107.818 44.1675 102.347 49.0199 93.8722 49.0199ZM82.8522 28.9243H104.398C104.461 22.2678 99.4808 18.5981 93.6276 18.5981C88.0821 18.5981 83.474 22.2678 82.8522 28.9243Z" fill="#111820"/>
<path d="M137.298 29.1759C137.298 22.2087 133.501 18.6621 127.773 18.6621C121.983 18.6621 117.998 22.2702 117.998 29.6111V48.4624H112.333V14.3695H117.998V19.2219C120.239 15.6752 124.348 13.7466 128.956 13.7466C136.863 13.7466 142.902 18.6006 142.902 28.3669V48.4624H137.298V29.1759Z" fill="#111820"/>
<path d="M149.028 19.0332H144.609V14.3669H149.028V5.78174H154.693V14.3669H163.597V19.0332H154.693V39.1272C154.693 42.4878 155.938 43.6689 159.427 43.6689H163.598V48.4598H158.492C152.452 48.4598 149.023 45.9713 149.023 39.1272L149.028 19.0332Z" fill="#111820"/>
<path d="M172.878 48.4615H167.208V14.3686H172.873V19.9054C174.808 16.1096 178.482 14.2803 183.898 14.2803V19.5947H182.403C176.987 19.5947 172.878 22.0201 172.878 29.9224V48.4615Z" fill="#111820"/>
<path d="M187.429 23.6074H193.089V48.4639H187.424L187.429 23.6074Z" fill="#0055B1"/>
<path d="M202.244 29.3198H207.909V29.4775L221.047 14.3589H228.953L212.896 31.3494L229.021 48.4582H221.301L207.915 33.4026V48.4582H202.244V29.3198Z" fill="#111820"/>
<path d="M194.469 18.0639C194.461 17.5551 194.556 17.0498 194.747 16.5782C194.938 16.1065 195.222 15.6781 195.582 15.3183C195.942 14.9585 196.371 14.6746 196.843 14.4837C197.315 14.2927 197.82 14.1984 198.33 14.2065C200.381 14.2065 202.065 15.886 202.065 18.0639C202.065 20.2417 200.384 21.9212 198.33 21.9212C197.82 21.9293 197.315 21.835 196.843 21.644C196.371 21.4531 195.942 21.1692 195.582 20.8094C195.222 20.4496 194.938 20.0212 194.747 19.5495C194.556 19.0779 194.461 18.5726 194.469 18.0639V18.0639Z" fill="#0055B1"/>
<path d="M33.7001 38.8378H14.5529L11.0258 48.5947H4.97852L20.8511 4.9751H27.465L43.2745 48.5947H37.2288L33.7001 38.8378ZM24.1273 12.029L16.1831 34.181H32.0636L24.1273 12.029Z" fill="#111820"/>
</svg>
