<svg width="83" height="55" viewBox="0 0 83 55" fill="none" xmlns="http://www.w3.org/2000/svg">
<g clip-path="url(#clip0_849_87759)">
<path d="M35.8155 42.7029H11.949L7.55048 54.991H0L19.7934 0.0581055H28.0401L47.7645 54.9989H40.214L35.8155 42.7029ZM23.8783 8.93622L13.9806 36.8386H33.774L23.8783 8.93622Z" fill="#422057"/>
<path d="M55.4453 30.8134L72.0138 11.5522H81.9884L61.7275 33.1922L82.0712 54.9913H72.3313L55.4453 35.8078V30.8134Z" fill="#422057"/>
<path d="M49.1889 0.000328055C48.4645 -0.00766316 47.7457 0.130415 47.0749 0.406465C46.404 0.682515 45.7945 1.09098 45.2821 1.6079C44.7697 2.12482 44.3648 2.73979 44.091 3.41675C43.8172 4.09371 43.6802 4.81902 43.6878 5.55015C43.6799 6.28144 43.8168 7.00697 44.0904 7.68416C44.3641 8.36134 44.769 8.97655 45.2814 9.49369C45.7938 10.0108 46.4034 10.4195 47.0744 10.6956C47.7454 10.9718 48.4643 11.11 49.1889 11.102C52.1752 11.102 54.5145 8.66346 54.5145 5.55015C54.5145 2.43683 52.1752 0.000328055 49.1889 0.000328055Z" fill="#422057"/>
</g>
<defs>
<clipPath id="clip0_849_87759">
<rect width="82.8986" height="55" fill="white"/>
</clipPath>
</defs>
</svg>
