<svg width="82" height="55" viewBox="0 0 82 55" fill="none" xmlns="http://www.w3.org/2000/svg">
<path d="M35.4272 42.7039H11.8195L7.46864 54.9919H0L19.5788 0.059082H27.7362L47.2467 54.9999H39.7781L35.4272 42.7039ZM23.6195 8.93719L13.8291 36.8396H33.4079L23.6195 8.93719Z" fill="#141220"/>
<path d="M54.8533 30.8143L71.2421 11.5532H81.1086L61.0674 33.1931L81.1906 54.9923H71.5563L54.8533 35.8088V30.8143Z" fill="#1081E6"/>
<path d="M48.6557 0.000328055C47.9391 -0.00766316 47.2281 0.130415 46.5645 0.406465C45.9009 0.682514 45.298 1.09098 44.7912 1.6079C44.2844 2.12482 43.8838 2.73979 43.613 3.41675C43.3422 4.09371 43.2066 4.81902 43.2142 5.55014C43.2064 6.28144 43.3417 7.00696 43.6124 7.68415C43.8831 8.36134 44.2836 8.97655 44.7905 9.49368C45.2974 10.0108 45.9003 10.4195 46.5641 10.6956C47.2278 10.9718 47.9389 11.1099 48.6557 11.102C51.6096 11.102 53.9235 8.66346 53.9235 5.55014C53.9235 2.43683 51.6096 0.000328055 48.6557 0.000328055Z" fill="#1081E6"/>
</svg>
